#N canvas 124 70 1261 684 10;
#X floatatom 334 140 5 0 150 0 - - -, f 5;
#X obj 334 162 mtof;
#X obj 335 226 pack 0 50;
#X obj 335 257 line~;
#X floatatom 334 204 7 0 0 0 - - -, f 7;
#X obj 448 96 loadbang;
#X obj 448 218 line~;
#X obj 334 91 loadbang;
#X obj 334 184 clip 10 18000;
#X obj 315 454 dac~;
#X obj 315 423 *~;
#X floatatom 371 371 5 0 100 0 - - -, f 5;
#X obj 371 451 line~;
#X obj 371 423 pack f 50;
#X obj 371 395 dbtorms;
#X text 410 369 dB;
#X obj 448 193 pack 0 50;
#X floatatom 448 154 5 0 10 0 - - -, f 5;
#X msg 184 253 softclip 0;
#X text 166 233 on;
#X text 160 252 off;
#X msg 184 233 softclip 1;
#X text 784 98 Metal bar;
#X text 767 50 Bell;
#X text 851 301 Sort of square;
#X text 812 196 Gong or cymbal;
#X text 482 155 0 to 10;
#X obj 16 137 line~;
#X obj 77 81 noise~;
#X obj 16 68 bng 30 250 50 0 empty empty 1 9 16 1 20 -203904 -45076
-45076;
#X msg 129 155 0;
#X obj 129 73 tgl 30 0 empty empty 2 9 16 1 20 -203904 -1 -1 0 1;
#X obj 129 113 sel 0;
#X obj 77 148 *~ 0;
#X text 111 55 White noise;
#X text 6 49 Impulse;
#X msg 156 138 0.2;
#X text 321 37 ----- Resonator parameters ----;
#X msg 448 122 4;
#X text 337 69 pitch;
#X msg 16 111 1 \, 0 1;
#X text 797 135 808 Cowbell. (sort of);
#X msg 162 355 print;
#X obj 763 395 s params;
#X obj 162 321 r params;
#X msg 801 153 bands 16 \, freqs 1 3 5 7 9 11 13 15 1.43952 4.31857
7.19762 10.0767 12.9557 15.8348 18.7138 21.5928 \, gains 1 1 1 1 1
1 1 1 1 1 1 1 1 1 1 1;
#X msg 334 116 57;
#X msg 816 214 bands 12 \, freqs 1 1.59 2.14 2.3 2.65 2.92 3.16 3.5
3.6 3.65 4.06 4.15 \, gains 1 1 1.5 2 2.2 2.3 2.4 2.5 2.6 2.8 3 3.2
;
#X msg 853 316 bands 14 \, freqs 1 3 5 7 9 11 13 15 17 19 21 23 25
27 \, gains 8 2.67 1.6 1.14 0.89 0.73 0.62 0.53 0.47 0.42 0.38 0.35
0.32 0.3;
#X msg 837 259 bands 16 \, freqs 1 2 3 4 5 6 7 8 9 10 11 12 13 14 15
16 \, gains 8 4 2.67 2 1.6 1.33 1.14 1 0.89 0.8 0.73 0.67 0.62 0.57
0.53 0.5;
#X text 834 243 Sort of sawtooth;
#X obj 763 27 loadbang;
#X msg 786 116 bands 4 \, freqs 1 2.76 5.4 8.9 \, gains 1 0.66 0.66
1;
#X obj 16 181 *~ 0.6;
#X text 10 3 ring64~ : a 64 bands resonator;
#X msg 265 213 gain \$1;
#X floatatom 265 188 5 0 2 0 - - -, f 5;
#X floatatom 264 143 5 0 100 0 - - -, f 5;
#X obj 265 165 / 50;
#X text 131 190 0..100 scaled to 0..2;
#X text 146 372 print state;
#X obj 264 91 loadbang;
#X text 259 67 main gain;
#X text 452 74 decay;
#X floatatom 550 156 5 -100 100 0 - - -, f 5;
#X obj 550 176 / 100;
#X obj 550 253 line~;
#X obj 550 227 pack 0 50;
#X obj 314 371 ring64~;
#X msg 763 68 bands 12 \, freqs 0.5 1 1.183 1.506 2 2.514 2.662 3.011
4.166 5.433 6.796 8.215 \, gains 1 1 1 1 1 1 1 1 1 1 1 1 1 1 1 1;
#X text 537 73 brightness;
#X floatatom 550 197 5 0 0 0 - - -, f 5;
#X obj 550 100 loadbang;
#X msg 550 131 0;
#X text 587 155 -100..100 scaled to -1..1;
#X text 1109 481 2018 Johannes Regnier;
#X msg 264 116 50;
#X connect 0 0 1 0;
#X connect 1 0 8 0;
#X connect 2 0 3 0;
#X connect 3 0 68 1;
#X connect 4 0 2 0;
#X connect 5 0 38 0;
#X connect 6 0 68 2;
#X connect 7 0 46 0;
#X connect 8 0 4 0;
#X connect 10 0 9 0;
#X connect 10 0 9 1;
#X connect 11 0 14 0;
#X connect 12 0 10 1;
#X connect 13 0 12 0;
#X connect 14 0 13 0;
#X connect 16 0 6 0;
#X connect 17 0 16 0;
#X connect 18 0 68 0;
#X connect 21 0 68 0;
#X connect 27 0 53 0;
#X connect 28 0 33 0;
#X connect 29 0 40 0;
#X connect 30 0 33 1;
#X connect 31 0 32 0;
#X connect 32 0 30 0;
#X connect 32 1 36 0;
#X connect 33 0 53 0;
#X connect 36 0 33 1;
#X connect 38 0 17 0;
#X connect 40 0 27 0;
#X connect 42 0 68 0;
#X connect 44 0 68 0;
#X connect 45 0 43 0;
#X connect 46 0 0 0;
#X connect 47 0 43 0;
#X connect 48 0 43 0;
#X connect 49 0 43 0;
#X connect 51 0 69 0;
#X connect 52 0 43 0;
#X connect 53 0 68 0;
#X connect 55 0 68 0;
#X connect 56 0 55 0;
#X connect 57 0 58 0;
#X connect 58 0 56 0;
#X connect 61 0 76 0;
#X connect 64 0 65 0;
#X connect 65 0 71 0;
#X connect 66 0 68 3;
#X connect 67 0 66 0;
#X connect 68 0 10 0;
#X connect 69 0 43 0;
#X connect 71 0 67 0;
#X connect 72 0 73 0;
#X connect 73 0 64 0;
#X connect 76 0 57 0;
