#N canvas 521 108 895 502 10;
#X floatatom 309 173 5 0 200 0 - - -, f 5;
#X obj 309 195 / 25;
#X msg 793 200 print;
#X floatatom 192 156 5 0 150 0 - - -, f 5;
#X obj 192 178 mtof;
#X obj 193 242 pack 0 50;
#X obj 193 273 line~;
#X msg 729 198 clear;
#X floatatom 192 220 7 0 0 0 - - -, f 7;
#X text 728 154 clear or print;
#X text 732 173 filter state;
#X floatatom 611 174 5 1 8 0 - - -, f 5;
#X text 607 99 oversampling;
#X msg 611 201 oversample \$1;
#X obj 611 122 loadbang;
#X msg 611 147 2;
#X text 350 189 scaled to 0-8;
#X text 348 174 0-200 control;
#X text 276 58 ----- filter parameters ----;
#X text 601 81 ------ optimizations / setup params -------;
#X text 742 132 debugging:;
#X obj 309 122 loadbang;
#X msg 309 147 10;
#X obj 309 248 line~;
#X obj 192 107 loadbang;
#X msg 192 132 69;
#X text 15 82 ----- test input ----;
#X obj 192 200 clip 10 18000;
#X obj 178 443 dac~;
#X obj 178 412 *~;
#X floatatom 236 360 5 0 100 0 - - -, f 5;
#X obj 236 440 line~;
#X obj 236 412 pack f 50;
#X obj 236 384 dbtorms;
#X text 275 358 dB;
#N canvas 784 270 740 424 audio_sources 0;
#X obj 102 122 tgl 15 0 empty empty empty 17 7 0 10 -262144 -1 -1 0
1;
#X floatatom 102 102 5 0 128 0 - - -, f 5;
#X obj 235 72 mtof;
#X obj 102 141 tgl 15 0 empty empty empty 17 7 0 10 -262144 -1 -1 0
1;
#X text 196 32 test signal;
#X text 147 102 pitch;
#X text 119 140 sawtooth;
#X obj 312 70 phasor~ 220;
#X obj 233 107 osc~ 220;
#X obj 102 160 tgl 15 0 empty empty empty 17 7 0 10 -262144 -1 -1 0
1;
#X text 121 120 sine;
#X text 120 159 noise;
#X floatatom 103 202 3 0 100 0 - - -, f 3;
#X obj 62 24 loadbang;
#X msg 48 163 80;
#X text 133 201 dB out;
#X msg 66 113 1;
#X obj 362 189 noise~;
#X obj 204 207 *~ 0;
#X obj 316 184 *~ 0;
#X obj 315 217 *~ 0;
#X obj 264 297 +~;
#X obj 264 368 outlet~;
#X obj 357 103 *~ 2;
#X obj 357 128 -~ 1;
#X obj 432 91 phasor~ 220;
#X obj 477 124 *~ 2;
#X obj 477 149 -~ 1;
#X obj 508 89 phasor~ 220;
#X obj 553 122 *~ 2;
#X obj 553 147 -~ 1;
#X obj 583 89 phasor~ 220;
#X obj 628 122 *~ 2;
#X obj 628 147 -~ 1;
#X obj 431 34 mtof;
#X obj 498 21 mtof;
#X obj 582 16 mtof;
#X obj 504 47 -12;
#X obj 538 207 *~ 0.33;
#X obj 523 254 *~ 0;
#X obj 121 276 dbtorms;
#X obj 264 336 *~;
#X obj 102 181 tgl 15 0 empty empty empty 17 7 0 10 -262144 -1 -1 1
1;
#X text 118 181 synth;
#X obj 584 41 + 0.4;
#X msg 62 49 49;
#X connect 0 0 18 1;
#X connect 1 0 2 0;
#X connect 1 0 34 0;
#X connect 1 0 35 0;
#X connect 1 0 36 0;
#X connect 2 0 7 0;
#X connect 2 0 8 0;
#X connect 3 0 19 1;
#X connect 7 0 23 0;
#X connect 8 0 18 0;
#X connect 9 0 20 1;
#X connect 12 0 40 0;
#X connect 13 0 45 0;
#X connect 13 0 14 0;
#X connect 13 0 16 0;
#X connect 14 0 12 0;
#X connect 16 0 42 0;
#X connect 17 0 20 0;
#X connect 18 0 21 0;
#X connect 19 0 21 1;
#X connect 20 0 21 1;
#X connect 21 0 41 0;
#X connect 23 0 24 0;
#X connect 24 0 19 0;
#X connect 25 0 26 0;
#X connect 26 0 27 0;
#X connect 27 0 38 0;
#X connect 28 0 29 0;
#X connect 29 0 30 0;
#X connect 30 0 38 0;
#X connect 31 0 32 0;
#X connect 32 0 33 0;
#X connect 33 0 38 0;
#X connect 34 0 25 0;
#X connect 35 0 37 0;
#X connect 36 0 44 0;
#X connect 37 0 28 0;
#X connect 38 0 39 0;
#X connect 39 0 21 1;
#X connect 40 0 41 1;
#X connect 41 0 22 0;
#X connect 42 0 39 1;
#X connect 44 0 31 0;
#X connect 45 0 1 0;
#X coords 0 -1 1 1 85 120 2 100 100;
#X restore 36 103 pd audio_sources;
#X msg 466 216 mode \$1;
#X text 461 80 mode:;
#X text 460 97 1: 2 poles low pass;
#X obj 466 146 loadbang;
#X msg 466 183 1;
#X obj 178 358 fumio~;
#X text 172 80 cutoff frequency;
#X obj 309 223 pack 0 50;
#X text 298 98 (>2 to oscillate);
#X text 7 5 fumio~ : a simple digital model of the Korg MS20 filter.
;
#X msg 495 183 2;
#X msg 525 182 3;
#X text 460 121 3: 1 pole high pass;
#X text 460 109 2: 2 poles band pass;
#X text 469 166 LP BP HP;
#X text 7 20 Derived from Miller Puckette's bob~.;
#X text 318 80 resonance;
#X connect 0 0 1 0;
#X connect 1 0 43 0;
#X connect 2 0 41 0;
#X connect 3 0 4 0;
#X connect 4 0 27 0;
#X connect 5 0 6 0;
#X connect 6 0 41 1;
#X connect 7 0 41 0;
#X connect 8 0 5 0;
#X connect 11 0 13 0;
#X connect 13 0 41 0;
#X connect 14 0 15 0;
#X connect 15 0 11 0;
#X connect 21 0 22 0;
#X connect 22 0 0 0;
#X connect 23 0 41 2;
#X connect 24 0 25 0;
#X connect 25 0 3 0;
#X connect 27 0 8 0;
#X connect 29 0 28 0;
#X connect 29 0 28 1;
#X connect 30 0 33 0;
#X connect 31 0 29 1;
#X connect 32 0 31 0;
#X connect 33 0 32 0;
#X connect 35 0 41 0;
#X connect 36 0 41 0;
#X connect 39 0 40 0;
#X connect 40 0 36 0;
#X connect 41 0 29 0;
#X connect 43 0 23 0;
#X connect 46 0 36 0;
#X connect 47 0 36 0;
